<?xml version="1.0" encoding="iso-8859-1"?>
<!-- Generator: Adobe Illustrator 19.0.0, SVG Export Plug-In . SVG Version: 6.00 Build 0)  -->
<svg xmlns="http://www.w3.org/2000/svg" xmlns:xlink="http://www.w3.org/1999/xlink" version="1.1" id="Layer_1" x="0px" y="0px" viewBox="0 0 284.249 284.249" style="enable-background:new 0 0 284.249 284.249;" xml:space="preserve" width="512" height="512">
<g>
	<path style="fill:#387F9E;" d="M142.124,54.146c-7.354,0-13.315-5.962-13.315-13.315V13.315C128.809,5.962,134.771,0,142.124,0   s13.315,5.962,13.315,13.315V40.83C155.44,48.184,149.478,54.146,142.124,54.146z"/>
	<path style="fill:#29556E;" d="M142.124,54.146c-7.354,0-13.315-5.962-13.315-13.315V13.315C128.809,5.962,134.771,0,142.124,0   V54.146z"/>
	<path style="fill:#F79F4B;" d="M204.26,54.238H79.988c-4.297,0-7.827,3.395-7.994,7.689l-8.317,214.011   c-0.176,4.537,3.454,8.311,7.994,8.311h140.905c4.54,0,8.17-3.774,7.994-8.311l-8.317-214.011   C212.087,57.633,208.558,54.238,204.26,54.238z"/>
	<path style="fill:#CA8540;" d="M142.124,54.238H79.988c-4.297,0-7.827,3.395-7.994,7.689l-8.317,214.011   c-0.176,4.537,3.454,8.311,7.994,8.311h70.453V54.238z"/>
	<g>
		<g>
			<path style="fill:#387F9E;" d="M228.708,56.38H55.541c-7.354,0-13.315-5.962-13.315-13.315V13.315     C42.225,5.962,48.187,0,55.541,0s13.315,5.962,13.315,13.315v16.434h146.537V13.315C215.393,5.962,221.354,0,228.708,0     s13.315,5.962,13.315,13.315v29.749C242.023,50.419,236.062,56.38,228.708,56.38z"/>
		</g>
	</g>
	<g>
		<g>
			<g>
				<path style="fill:#29556E;" d="M142.124,56.38H55.541c-7.354,0-13.315-5.962-13.315-13.315V13.315      C42.225,5.962,48.187,0,55.541,0s13.315,5.962,13.315,13.315v16.434h73.268V56.38z"/>
			</g>
		</g>
	</g>
	<path style="fill:#C6E5E4;" d="M142.124,181.436c-14.346,0-25.976,11.63-25.976,25.976v76.837H168.1v-76.837   C168.1,193.066,156.471,181.436,142.124,181.436z"/>
	<path style="fill:#83CFE0;" d="M142.124,181.436c-14.346,0-25.976,11.63-25.976,25.976v76.837h25.976V181.436z"/>
</g>















</svg>
