<?xml version="1.0" encoding="iso-8859-1"?>
<!-- Generator: Adobe Illustrator 19.0.0, SVG Export Plug-In . SVG Version: 6.00 Build 0)  -->
<svg xmlns="http://www.w3.org/2000/svg" xmlns:xlink="http://www.w3.org/1999/xlink" version="1.1" id="Layer_1" x="0px" y="0px" viewBox="0 0 431.978 431.978" style="enable-background:new 0 0 431.978 431.978;" xml:space="preserve" width="512" height="512">
<g>
	<path style="fill:#83CFE0;" d="M332.192,431.978H99.787c-4.418,0-8-3.582-8-8V73.635c0-4.418,3.582-8,8-8h232.405   c4.418,0,8,3.582,8,8v350.343C340.192,428.397,336.61,431.978,332.192,431.978z"/>
	<path style="fill:#649AA6;" d="M215.874,431.978H99.787c-4.418,0-8-3.582-8-8V73.635c0-4.418,3.582-8,8-8h113.784L215.874,431.978z   "/>
	<g>
		<g>
			<g>
				<path style="fill:#29556E;" d="M159.989,171.305c-8.284,0-15-6.716-15-15v-19c0-8.284,6.716-15,15-15s15,6.716,15,15v19      C174.989,164.589,168.273,171.305,159.989,171.305z"/>
			</g>
			<path style="fill:#387F9E;" d="M215.989,171.305c-8.284,0-15-6.716-15-15v-19c0-8.284,6.716-15,15-15s15,6.716,15,15v19     C230.989,164.589,224.273,171.305,215.989,171.305z"/>
			<g>
				<path style="fill:#29556E;" d="M215.989,171.305c-8.284,0-15-6.716-15-15v-19c0-8.284,6.716-15,15-15V171.305z"/>
			</g>
			<path style="fill:#387F9E;" d="M271.989,171.305c-8.284,0-15-6.716-15-15v-19c0-8.284,6.716-15,15-15s15,6.716,15,15v19     C286.989,164.589,280.273,171.305,271.989,171.305z"/>
		</g>
	</g>
	<g>
		<g>
			<g>
				<path style="fill:#29556E;" d="M159.989,252.641c-8.284,0-15-6.716-15-15v-19c0-8.284,6.716-15,15-15s15,6.716,15,15v19      C174.989,245.925,168.273,252.641,159.989,252.641z"/>
			</g>
			<path style="fill:#387F9E;" d="M215.989,252.641c-8.284,0-15-6.716-15-15v-19c0-8.284,6.716-15,15-15s15,6.716,15,15v19     C230.989,245.925,224.273,252.641,215.989,252.641z"/>
			<g>
				<path style="fill:#29556E;" d="M215.989,252.641c-8.284,0-15-6.716-15-15v-19c0-8.284,6.716-15,15-15V252.641z"/>
			</g>
			<path style="fill:#387F9E;" d="M271.989,252.641c-8.284,0-15-6.716-15-15v-19c0-8.284,6.716-15,15-15s15,6.716,15,15v19     C286.989,245.925,280.273,252.641,271.989,252.641z"/>
		</g>
	</g>
	<g>
		<g>
			<g>
				<path style="fill:#29556E;" d="M159.989,333.977c-8.284,0-15-6.716-15-15v-19c0-8.284,6.716-15,15-15s15,6.716,15,15v19      C174.989,327.261,168.273,333.977,159.989,333.977z"/>
			</g>
			<path style="fill:#387F9E;" d="M215.989,333.977c-8.284,0-15-6.716-15-15v-19c0-8.284,6.716-15,15-15s15,6.716,15,15v19     C230.989,327.261,224.273,333.977,215.989,333.977z"/>
			<g>
				<path style="fill:#29556E;" d="M215.989,333.977c-8.284,0-15-6.716-15-15v-19c0-8.284,6.716-15,15-15V333.977z"/>
			</g>
			<path style="fill:#387F9E;" d="M271.989,333.977c-8.284,0-15-6.716-15-15v-19c0-8.284,6.716-15,15-15s15,6.716,15,15v19     C286.989,327.261,280.273,333.977,271.989,333.977z"/>
		</g>
	</g>
	<rect x="169.842" y="365.969" style="fill:#387F9E;" width="92.295" height="66.01"/>
	<polygon style="fill:#29556E;" points="215.457,365.969 169.842,365.969 169.842,431.978 215.879,431.978  "/>
	<path style="fill:#F79F4B;" d="M274.955,102.048H157.023c-4.418,0-8-3.582-8-8V8c0-4.418,3.582-8,8-8h117.932c4.418,0,8,3.582,8,8   v86.048C282.955,98.467,279.373,102.048,274.955,102.048z"/>
	<path style="fill:#CA8540;" d="M215.989,102.048h-58.966c-4.418,0-8-3.582-8-8V8c0-4.418,3.582-8,8-8h58.966V102.048z"/>
	<path style="fill:#83CFE0;" d="M233.407,20.971c-8.121,0-14.718,6.458-14.976,14.516h-4.885   c-0.258-8.058-6.855-14.516-14.976-14.516c-8.284,0-15,6.716-15,15v31.105c0,8.284,6.716,15,15,15s15-6.716,15-15v-1.589h4.836   v1.589c0,8.284,6.716,15,15,15s15-6.716,15-15V35.971C248.407,27.687,241.691,20.971,233.407,20.971z"/>
	<path style="fill:#649AA6;" d="M215.989,35.488h-2.442c-0.258-8.058-6.855-14.516-14.976-14.516c-8.284,0-15,6.716-15,15v31.105   c0,8.284,6.716,15,15,15s15-6.716,15-15v-1.589h2.418V35.488z"/>
</g>















</svg>
