<?xml version="1.0" encoding="iso-8859-1"?>
<!-- Generator: Adobe Illustrator 19.0.0, SVG Export Plug-In . SVG Version: 6.00 Build 0)  -->
<svg version="1.1" id="Layer_1" xmlns="http://www.w3.org/2000/svg" xmlns:xlink="http://www.w3.org/1999/xlink" x="0px" y="0px"
	 viewBox="0 0 511.984 511.984" style="enable-background:new 0 0 511.984 511.984;" xml:space="preserve">
<path style="fill:#434A54;" d="M255.992,53.326c-5.89,0-10.656-4.781-10.656-10.672V10.655C245.336,4.764,250.102,0,255.992,0
	c5.891,0,10.656,4.765,10.656,10.655v31.999C266.648,48.545,261.883,53.326,255.992,53.326z"/>
<path style="fill:#656D78;" d="M296.521,78.919l-31.998-42.655c-2.016-2.687-5.172-4.265-8.531-4.265
	c-3.359,0-6.515,1.578-8.531,4.265l-31.999,42.655c-2.422,3.234-2.812,7.562-1,11.172c1.797,3.609,5.5,5.906,9.531,5.906h63.997
	c4.031,0,7.734-2.297,9.531-5.906C299.334,86.481,298.959,82.153,296.521,78.919z"/>
<path style="fill:#E9573F;" d="M287.99,74.653h-63.997c-5.89,0-10.656,4.781-10.656,10.672v42.671
	c0,5.891,4.766,10.655,10.656,10.655h63.997c5.891,0,10.656-4.765,10.656-10.655V85.325
	C298.646,79.434,293.881,74.653,287.99,74.653z"/>
<path style="fill:#FC6E51;" d="M328.521,164.261l-32-42.671c-2.016-2.688-5.172-4.266-8.531-4.266h-63.997
	c-3.359,0-6.515,1.578-8.531,4.266l-31.999,42.671c-2.422,3.219-2.812,7.546-1,11.155c1.797,3.625,5.5,5.906,9.531,5.906H319.99
	c4.031,0,7.734-2.281,9.531-5.906C331.334,171.806,330.959,167.479,328.521,164.261z"/>
<g>
	<path style="fill:#E9573F;" d="M319.99,319.99H191.994c-5.891,0-10.656,4.766-10.656,10.656v170.666
		c0,5.891,4.765,10.672,10.656,10.672H319.99c5.891,0,10.656-4.781,10.656-10.672V330.646
		C330.646,324.756,325.881,319.99,319.99,319.99z"/>
	<path style="fill:#E9573F;" d="M319.99,159.995H191.994c-5.891,0-10.656,4.766-10.656,10.656v31.999
		c0,5.89,4.765,10.671,10.656,10.671H319.99c5.891,0,10.656-4.781,10.656-10.671v-31.999
		C330.646,164.761,325.881,159.995,319.99,159.995z"/>
</g>
<g>
	<path style="fill:#FC6E51;" d="M234.649,373.316c-5.875,0-10.656,4.766-10.656,10.672v127.996h21.343V383.988
		C245.336,378.082,240.555,373.316,234.649,373.316z"/>
	<path style="fill:#FC6E51;" d="M277.336,373.316c-5.906,0-10.688,4.766-10.688,10.672v127.996h21.342V383.988
		C287.99,378.082,283.211,373.316,277.336,373.316z"/>
	<path style="fill:#FC6E51;" d="M331.334,181.322H180.651c-5.875,0-10.656,4.766-10.656,10.672v149.323
		c0,5.891,4.781,10.672,10.656,10.672h150.683c5.875,0,10.656-4.781,10.656-10.672V191.994
		C341.99,186.088,337.209,181.322,331.334,181.322z"/>
</g>
<path style="fill:#E6E9ED;" d="M255.992,202.65c-35.28,0-63.998,28.718-63.998,63.998c0,35.295,28.718,63.998,63.998,63.998
	c35.279,0,63.998-28.703,63.998-63.998C319.99,231.368,291.271,202.65,255.992,202.65z"/>
<g>
	<path style="fill:#424953;" d="M255.992,277.319c-5.89,0-10.656-4.781-10.656-10.671v-42.655c0-5.906,4.766-10.672,10.656-10.672
		c5.891,0,10.656,4.766,10.656,10.672v42.655C266.648,272.538,261.883,277.319,255.992,277.319z"/>
	<path style="fill:#424953;" d="M286.164,307.49c-2.734,0-5.453-1.047-7.547-3.125l-30.156-30.171
		c-4.188-4.171-4.188-10.921,0-15.093c4.156-4.156,10.906-4.156,15.062,0l30.186,30.171c4.156,4.172,4.156,10.921,0,15.093
		C291.615,306.443,288.896,307.49,286.164,307.49z"/>
</g>
<g>
</g>
<g>
</g>
<g>
</g>
<g>
</g>
<g>
</g>
<g>
</g>
<g>
</g>
<g>
</g>
<g>
</g>
<g>
</g>
<g>
</g>
<g>
</g>
<g>
</g>
<g>
</g>
<g>
</g>
</svg>
