<?xml version="1.0" encoding="iso-8859-1"?>
<!-- Generator: Adobe Illustrator 19.0.0, SVG Export Plug-In . SVG Version: 6.00 Build 0)  -->
<svg version="1.1" id="Layer_1" xmlns="http://www.w3.org/2000/svg" xmlns:xlink="http://www.w3.org/1999/xlink" x="0px" y="0px"
	 viewBox="0 0 512 512" style="enable-background:new 0 0 512 512;" xml:space="preserve">
<path style="fill:#BDDEFF;" d="M428.522,105.739H328.348c-9.217,0-16.696-7.473-16.696-16.696V22.261
	c0-9.223,7.479-16.696,16.696-16.696h100.174c9.217,0,16.696,7.473,16.696,16.696v66.783
	C445.217,98.266,437.739,105.739,428.522,105.739z"/>
<path style="fill:#D7EBFF;" d="M183.652,105.739H83.478c-9.217,0-16.696-7.473-16.696-16.696V22.261
	c0-9.223,7.479-16.696,16.696-16.696h100.174c9.217,0,16.696,7.473,16.696,16.696v66.783
	C200.348,98.266,192.869,105.739,183.652,105.739z"/>
<g>
	<path style="fill:#576573;" d="M495.304,172.522H16.696C7.479,172.522,0,165.049,0,155.826v-33.391
		c0-27.619,22.468-50.087,50.087-50.087h411.826c27.619,0,50.087,22.468,50.087,50.087v33.391
		C512,165.049,504.521,172.522,495.304,172.522z"/>
	<path style="fill:#576573;" d="M461.913,506.435H50.087C22.468,506.435,0,483.967,0,456.348v-33.391
		c0-9.223,7.479-16.696,16.696-16.696h478.609c9.217,0,16.696,7.473,16.696,16.696v33.391
		C512,483.967,489.532,506.435,461.913,506.435z"/>
</g>
<g>
	<path style="fill:#485566;" d="M495.304,406.261H256v100.174h205.913c27.619,0,50.087-22.468,50.087-50.087v-33.391
		C512,413.734,504.521,406.261,495.304,406.261z"/>
	<path style="fill:#485566;" d="M461.913,72.348H256v100.174h239.304c9.217,0,16.696-7.473,16.696-16.696v-33.391
		C512,94.816,489.532,72.348,461.913,72.348z"/>
</g>
<path style="fill:#FFD15D;" d="M512,439.652H0V139.13h512V439.652z"/>
<rect x="256" y="139.13" style="fill:#F9B54C;" width="256" height="300.522"/>
<path style="fill:#576573;" d="M150.283,272.696h-16.696V256c0-9.223-7.479-16.696-16.696-16.696s-16.696,7.473-16.696,16.696
	v16.696H83.501c-9.217,0-16.696,7.473-16.696,16.696s7.479,16.696,16.696,16.696h16.696v16.696c0,9.223,7.479,16.696,16.696,16.696
	s16.696-7.473,16.696-16.696v-16.696h16.696c9.217,0,16.696-7.473,16.696-16.696S159.5,272.696,150.283,272.696z"/>
<path style="fill:#485566;" d="M428.544,306.087h-66.783c-9.217,0-16.696-7.473-16.696-16.696s7.479-16.696,16.696-16.696h66.783
	c9.217,0,16.696,7.473,16.696,16.696S437.761,306.087,428.544,306.087z"/>
<path style="fill:#5CE6E6;" d="M244.881,367.304c-3.718,0-7.456-1.233-10.565-3.772c-7.13-5.842-8.185-16.358-2.347-23.494
	l27.782-33.951h-42.685c-6.446,0-12.326-3.718-15.087-9.543c-2.76-5.831-1.924-12.733,2.163-17.723l50.087-61.217
	c5.848-7.141,16.348-8.19,23.5-2.353c7.13,5.842,8.184,16.358,2.347,23.494l-27.78,33.951h42.685c6.446,0,12.326,3.718,15.087,9.543
	c2.76,5.831,1.924,12.733-2.163,17.723l-50.087,61.217C254.511,365.217,249.717,367.304,244.881,367.304z"/>
<g>
	<path style="fill:#51CCCC;" d="M294.979,272.696H256v33.391h3.75l-3.75,4.582v52.275c0.623-0.562,1.267-1.095,1.815-1.765
		l50.087-61.217c4.087-4.989,4.924-11.892,2.163-17.723C307.305,276.413,301.424,272.696,294.979,272.696z"/>
	<path style="fill:#51CCCC;" d="M277.728,215.25c-6.491-5.298-15.703-4.867-21.728,0.585v52.332l24.076-29.422
		C285.913,231.609,284.859,221.093,277.728,215.25z"/>
</g>
<g>
</g>
<g>
</g>
<g>
</g>
<g>
</g>
<g>
</g>
<g>
</g>
<g>
</g>
<g>
</g>
<g>
</g>
<g>
</g>
<g>
</g>
<g>
</g>
<g>
</g>
<g>
</g>
<g>
</g>
</svg>
