<?xml version="1.0" encoding="iso-8859-1"?>
<!-- Generator: Adobe Illustrator 19.0.0, SVG Export Plug-In . SVG Version: 6.00 Build 0)  -->
<svg version="1.1" id="Layer_1" xmlns="http://www.w3.org/2000/svg" xmlns:xlink="http://www.w3.org/1999/xlink" x="0px" y="0px"
	 viewBox="0 0 503.322 503.322" style="enable-background:new 0 0 503.322 503.322;" xml:space="preserve">
<g>
	<path style="fill:#D6D0C7;" d="M104.136,138.847c-4.79,0-8.678-3.888-8.678-8.678V34.712c0-4.79,3.888-8.678,8.678-8.678
		s8.678,3.888,8.678,8.678v95.458C112.814,134.96,108.926,138.847,104.136,138.847"/>
	<polygon style="fill:#DD342E;" points="21.199,72.11 112.813,98.283 112.813,19.756 	"/>
	<path style="fill:#D6D0C7;" d="M399.186,138.847c-4.79,0-8.678-3.888-8.678-8.678V34.712c0-4.79,3.888-8.678,8.678-8.678
		c4.799,0,8.678,3.888,8.678,8.678v95.458C407.864,134.96,403.985,138.847,399.186,138.847"/>
	<polygon style="fill:#DD342E;" points="390.508,19.759 390.508,98.286 482.122,72.113 	"/>
	<polygon style="fill:#D6D0C7;" points="329.763,234.305 347.119,208.271 156.203,208.271 173.559,234.305 156.203,234.305 
		156.203,503.322 347.119,503.322 347.119,234.305 	"/>
	<g>
		<polygon style="fill:#ADAAA6;" points="52.068,503.322 156.203,503.322 156.203,234.305 52.068,234.305 		"/>
		<polygon style="fill:#ADAAA6;" points="199.593,503.322 303.729,503.322 303.729,355.797 199.593,355.797 		"/>
	</g>
	<polygon style="fill:#7281A4;" points="312.407,355.797 190.915,355.797 251.661,269.017 	"/>
	<polygon style="fill:#ADAAA6;" points="216.949,208.271 286.373,208.271 286.373,86.78 216.949,86.78 	"/>
	<g>
		<polygon style="fill:#7281A4;" points="295.051,86.78 208.271,86.78 251.661,0 		"/>
		<polygon style="fill:#7281A4;" points="173.559,234.305 34.712,234.305 104.136,112.814 		"/>
		<polygon style="fill:#7281A4;" points="52.068,286.373 43.39,269.017 0,355.797 52.068,355.797 		"/>
	</g>
	<polygon style="fill:#D6D0C7;" points="8.678,503.322 52.068,503.322 52.068,355.797 8.678,355.797 	"/>
	<polygon style="fill:#ADAAA6;" points="347.119,503.322 451.254,503.322 451.254,234.305 347.119,234.305 	"/>
	<g>
		<polygon style="fill:#7281A4;" points="329.763,234.305 468.61,234.305 399.186,112.814 		"/>
		<polygon style="fill:#7281A4;" points="451.254,286.373 459.932,269.017 503.322,355.797 451.254,355.797 		"/>
	</g>
	<g>
		<polygon style="fill:#D6D0C7;" points="451.254,503.322 494.644,503.322 494.644,355.797 451.254,355.797 		"/>
		<path style="fill:#D6D0C7;" d="M104.136,329.763c-4.79,0-8.678-3.888-8.678-8.678v-52.068c0-4.79,3.888-8.678,8.678-8.678
			s8.678,3.888,8.678,8.678v52.068C112.814,325.875,108.926,329.763,104.136,329.763"/>
		<path style="fill:#D6D0C7;" d="M104.136,477.288c-4.79,0-8.678-3.888-8.678-8.678v-52.068c0-4.79,3.888-8.678,8.678-8.678
			s8.678,3.888,8.678,8.678v52.068C112.814,473.4,108.926,477.288,104.136,477.288"/>
		<path style="fill:#D6D0C7;" d="M104.136,390.508c-4.79,0-8.678-3.888-8.678-8.678v-26.034c0-4.79,3.888-8.678,8.678-8.678
			s8.678,3.888,8.678,8.678v26.034C112.814,386.621,108.926,390.508,104.136,390.508"/>
		<path style="fill:#D6D0C7;" d="M399.186,329.763c-4.79,0-8.678-3.888-8.678-8.678v-52.068c0-4.79,3.888-8.678,8.678-8.678
			c4.799,0,8.678,3.888,8.678,8.678v52.068C407.864,325.875,403.985,329.763,399.186,329.763"/>
		<path style="fill:#D6D0C7;" d="M399.186,477.288c-4.79,0-8.678-3.888-8.678-8.678v-52.068c0-4.79,3.888-8.678,8.678-8.678
			c4.799,0,8.678,3.888,8.678,8.678v52.068C407.864,473.4,403.985,477.288,399.186,477.288"/>
		<path style="fill:#D6D0C7;" d="M399.186,390.508c-4.79,0-8.678-3.888-8.678-8.678v-26.034c0-4.79,3.888-8.678,8.678-8.678
			c4.799,0,8.678,3.888,8.678,8.678v26.034C407.864,386.621,403.985,390.508,399.186,390.508"/>
		<polygon style="fill:#D6D0C7;" points="234.305,503.322 269.017,503.322 269.017,416.542 234.305,416.542 		"/>
	</g>
	<g>
		<path style="fill:#ADAAA6;" d="M199.593,295.051c-4.79,0-8.678-3.888-8.678-8.678v-34.712c0-4.79,3.888-8.678,8.678-8.678
			s8.678,3.888,8.678,8.678v34.712C208.271,291.163,204.383,295.051,199.593,295.051"/>
		<path style="fill:#ADAAA6;" d="M303.729,295.051c-4.79,0-8.678-3.888-8.678-8.678v-34.712c0-4.79,3.888-8.678,8.678-8.678
			s8.678,3.888,8.678,8.678v34.712C312.407,291.163,308.519,295.051,303.729,295.051"/>
	</g>
	<path style="fill:#D6D0C7;" d="M251.661,173.559c-4.79,0-8.678-3.888-8.678-8.678v-34.712c0-4.79,3.888-8.678,8.678-8.678
		s8.678,3.888,8.678,8.678v34.712C260.339,169.672,256.451,173.559,251.661,173.559"/>
</g>
<g>
</g>
<g>
</g>
<g>
</g>
<g>
</g>
<g>
</g>
<g>
</g>
<g>
</g>
<g>
</g>
<g>
</g>
<g>
</g>
<g>
</g>
<g>
</g>
<g>
</g>
<g>
</g>
<g>
</g>
</svg>
