<?xml version="1.0" encoding="iso-8859-1"?>
<!-- Generator: Adobe Illustrator 19.0.0, SVG Export Plug-In . SVG Version: 6.00 Build 0)  -->
<svg version="1.1" id="Layer_1" xmlns="http://www.w3.org/2000/svg" xmlns:xlink="http://www.w3.org/1999/xlink" x="0px" y="0px"
	 viewBox="0 0 512 512" style="enable-background:new 0 0 512 512;" xml:space="preserve">
<circle style="fill:#00A2FF;" cx="256" cy="255.996" r="255.996"/>
<path style="fill:#0084FF;" d="M256,28.259c0,0-13.406,13.409-9.749,20.201c0,0-13.387,17.808-4.021,25.973h-9.84l3.803,11.411
	h-2.483v13.375l10.148,5.259l-3.619,66.987l-28.666-28.666c-2.493-3.906-6.854-6.516-11.806-6.516h-76.388
	c-7.705,0-14.009,6.304-14.009,14.009c0,3.604,1.391,6.89,3.647,9.379H79.798c-7.705,0-14.009,6.304-14.009,14.009
	c0,4.951,2.61,9.313,6.516,11.806l158.607,158.609l-0.908,16.801h-61.702v16.525l42.068,37.158h-58.763v18.4l77.634,77.634
	c8.797,0.914,17.723,1.389,26.762,1.389c132.082,0,240.788-100.032,254.523-228.468L256,28.259z"/>
<g>
	<path style="fill:#FFFFFF;" d="M79.798,159.672h33.22c-2.257-2.489-3.647-5.775-3.647-9.379c0-7.705,6.304-14.009,14.009-14.009
		h76.388c7.705,0,14.009,6.304,14.009,14.009s-6.304,14.009-14.009,14.009h-33.221c2.256,2.489,3.647,5.775,3.647,9.379l0,0
		c0,7.705-6.304,14.009-14.009,14.009H79.798c-7.705,0-14.009-6.304-14.009-14.009l0,0C65.79,165.975,72.093,159.672,79.798,159.672
		z"/>
	<path style="fill:#FFFFFF;" d="M448.506,230.335h-28.884c1.962-2.164,3.171-5.022,3.171-8.154c0-6.699-5.48-12.179-12.18-12.179
		h-66.415c-6.699,0-12.179,5.48-12.179,12.179c0,6.699,5.48,12.179,12.179,12.179h28.884c-1.961,2.164-3.171,5.022-3.171,8.154l0,0
		c0,6.699,5.48,12.179,12.179,12.179h66.416c6.699,0,12.18-5.48,12.18-12.179l0,0C460.686,235.815,455.205,230.335,448.506,230.335z
		"/>
</g>
<path style="fill:#FABC00;" d="M265.756,48.46C269.413,41.668,256,28.259,256,28.259s-13.406,13.409-9.749,20.201
	c0,0-13.758,18.285-3.657,26.297h26.819C279.514,66.745,265.756,48.46,265.756,48.46z"/>
<path style="fill:#D5A200;" d="M265.756,48.46c3.647-6.773-9.678-20.122-9.752-20.198v46.494h13.409
	C279.514,66.745,265.756,48.46,265.756,48.46z"/>
<polygon style="fill:#C4A98D;" points="232.391,74.433 236.531,86.853 275.477,86.853 279.616,74.433 "/>
<polygon style="fill:#A7805B;" points="279.616,74.433 256.003,74.433 256.003,86.853 275.477,86.853 "/>
<polygon style="fill:#EBE2DA;" points="267.73,96.743 244.277,96.743 229.927,362.343 282.08,362.343 "/>
<polygon style="fill:#DAC8B8;" points="282.08,362.343 267.73,96.743 256,96.743 256,362.343 "/>
<path style="fill:#C4A98D;" d="M178.609,374.93c0,0,33.386,18.841,41.353,40.089h72.082c7.967-21.248,41.353-40.089,41.353-40.089
	H178.609z"/>
<path style="fill:#A7805B;" d="M256.003,374.93v40.089h36.041c7.967-21.248,41.353-40.089,41.353-40.089H256.003z"/>
<rect x="168.303" y="360.892" style="fill:#DAC8B8;" width="175.405" height="16.525"/>
<rect x="256" y="360.892" style="fill:#C4A98D;" width="87.701" height="16.525"/>
<rect x="151.606" y="414.578" style="fill:#DAC8B8;" width="208.789" height="18.4"/>
<rect x="256" y="414.578" style="fill:#C4A98D;" width="104.394" height="18.4"/>
<path style="fill:#A7805B;" d="M256.003,512c73.05,0,138.95-30.599,185.59-79.676H70.413C117.055,481.401,182.954,512,256.003,512z"
	/>
<g>
	<rect x="121.325" y="441.986" style="fill:#866746;" width="60.06" height="11.269"/>
	<rect x="202.011" y="453.26" style="fill:#866746;" width="43.651" height="11.269"/>
	<rect x="176.443" y="477.992" style="fill:#866746;" width="43.651" height="11.269"/>
	<path style="fill:#866746;" d="M256,432.323v79.675c0.001,0,0.002,0,0.003,0c73.05,0,138.95-30.599,185.59-79.677H256V432.323z"/>
</g>
<g>
	<rect x="269.573" y="441.338" style="fill:#644B32;" width="60.06" height="11.269"/>
	<rect x="346.581" y="454.169" style="fill:#644B32;" width="43.651" height="11.269"/>
	<rect x="277.775" y="476.603" style="fill:#644B32;" width="43.651" height="11.269"/>
</g>
<rect x="233.713" y="85.848" style="fill:#DAC8B8;" width="44.583" height="13.375"/>
<rect x="256" y="85.848" style="fill:#C4A98D;" width="22.292" height="13.375"/>
<g>
</g>
<g>
</g>
<g>
</g>
<g>
</g>
<g>
</g>
<g>
</g>
<g>
</g>
<g>
</g>
<g>
</g>
<g>
</g>
<g>
</g>
<g>
</g>
<g>
</g>
<g>
</g>
<g>
</g>
</svg>
