<?xml version="1.0" encoding="iso-8859-1"?>
<!-- Generator: Adobe Illustrator 19.0.0, SVG Export Plug-In . SVG Version: 6.00 Build 0)  -->
<svg xmlns="http://www.w3.org/2000/svg" xmlns:xlink="http://www.w3.org/1999/xlink" version="1.1" id="Layer_1" x="0px" y="0px" viewBox="0 0 380.91 380.91" style="enable-background:new 0 0 380.91 380.91;" xml:space="preserve" width="512" height="512">
<g>
	<g>
		<line style="fill:#387F9E;" x1="190.455" y1="15" x2="190.455" y2="50.262"/>
		<path style="fill:#387F9E;" d="M190.455,65.262c-8.284,0-15-6.716-15-15V15c0-8.284,6.716-15,15-15s15,6.716,15,15v35.262    C205.455,58.546,198.739,65.262,190.455,65.262z"/>
	</g>
	<g>
		<g>
			<g>
				<path style="fill:#4F9EAE;" d="M95.933,250.588c-8.284,0-15-6.716-15-15v-94.451c0-8.284,6.716-15,15-15s15,6.716,15,15v94.451      C110.933,243.872,104.217,250.588,95.933,250.588z"/>
			</g>
			<g>
				<path style="fill:#4F9EAE;" d="M143.194,250.588c-8.284,0-15-6.716-15-15v-94.451c0-8.284,6.716-15,15-15s15,6.716,15,15v94.451      C158.194,243.872,151.478,250.588,143.194,250.588z"/>
			</g>
			<g>
				<path style="fill:#5CBBCF;" d="M190.455,250.588c-8.284,0-15-6.716-15-15v-94.451c0-8.284,6.716-15,15-15s15,6.716,15,15v94.451      C205.455,243.872,198.739,250.588,190.455,250.588z"/>
			</g>
			<g>
				<path style="fill:#4F9EAE;" d="M190.455,250.588c-8.284,0-15-6.716-15-15v-94.451c0-8.284,6.716-15,15-15V250.588z"/>
			</g>
			<g>
				<path style="fill:#5CBBCF;" d="M237.716,250.588c-8.284,0-15-6.716-15-15v-94.451c0-8.284,6.716-15,15-15s15,6.716,15,15v94.451      C252.716,243.872,246,250.588,237.716,250.588z"/>
			</g>
			<g>
				<path style="fill:#5CBBCF;" d="M284.977,250.588c-8.284,0-15-6.716-15-15v-94.451c0-8.284,6.716-15,15-15s15,6.716,15,15v94.451      C299.977,243.872,293.261,250.588,284.977,250.588z"/>
			</g>
		</g>
	</g>
	<path style="fill:#858EA4;" d="M190.455,38.727L190.455,38.727c-55.23,0-100.003,44.773-100.003,100.002v8.588h200.005v-8.588   C290.458,83.5,245.685,38.727,190.455,38.727z"/>
	<path style="fill:#707789;" d="M190.455,38.727L190.455,38.727c-55.23,0-100.003,44.773-100.003,100.002v8.588h100.002   L190.455,38.727z"/>
	<g>
		<path style="fill:#858EA4;" d="M320.862,380.91H60.049c-4.418,0-8-3.582-8-8V239.5c0-4.418,3.582-8,8-8h260.813    c4.418,0,8,3.582,8,8v133.41C328.862,377.328,325.28,380.91,320.862,380.91z"/>
	</g>
	<g>
		<path style="fill:#707789;" d="M190.455,380.91H60.049c-4.418,0-8-3.582-8-8V239.5c0-4.418,3.582-8,8-8h130.406V380.91z"/>
	</g>
	<path style="fill:#387F9E;" d="M190.455,302.643c-15.214,0-27.547,12.333-27.547,27.547v50.721h55.093v-50.721   C218.002,314.976,205.669,302.643,190.455,302.643z"/>
	<path style="fill:#29556E;" d="M190.455,302.643c-15.214,0-27.547,12.333-27.547,27.547v50.721h27.547V302.643z"/>
	<path style="fill:#387F9E;" d="M303.455,158.612h-226c-8.284,0-15-6.716-15-15s6.716-15,15-15h226c8.284,0,15,6.716,15,15   S311.739,158.612,303.455,158.612z"/>
</g>















</svg>
