<?xml version="1.0" encoding="iso-8859-1"?>
<!-- Generator: Adobe Illustrator 19.0.0, SVG Export Plug-In . SVG Version: 6.00 Build 0)  -->
<svg version="1.1" id="Layer_1" xmlns="http://www.w3.org/2000/svg" xmlns:xlink="http://www.w3.org/1999/xlink" x="0px" y="0px"
	 viewBox="0 0 512 512" style="enable-background:new 0 0 512 512;" xml:space="preserve">
<circle style="fill:#6B7F9E;" cx="256" cy="256" r="256"/>
<polygon style="fill:#FFFFFF;" points="122.877,347.384 70.962,502.58 201.128,502.58 149.213,347.384 136.011,345.734 "/>
<polygon style="fill:#E4E7ED;" points="136.011,502.58 201.128,502.58 149.213,347.384 136.011,345.734 "/>
<g>
	<path style="fill:#C6CBD6;" d="M122.946,347.934l15.196-13.684c2.544-2.269,6.395-2.063,8.664,0.481l4.951,5.501
		c2.269,2.544,2.063,6.395-0.481,8.664l-15.196,13.684c-2.544,2.269-6.395,2.063-8.664-0.481l-4.951-5.501
		C120.196,354.054,120.402,350.204,122.946,347.934z"/>
	<path style="fill:#C6CBD6;" d="M163.997,309.909l14.44,16.297c3.644,4.057,3.232,10.383-0.825,14.027l-20.56,18.153
		c-4.057,3.644-10.383,3.232-14.027-0.825l-14.44-16.297c-3.644-4.057-3.232-10.383,0.825-14.027l20.56-18.153
		C154.026,305.44,160.352,305.852,163.997,309.909z"/>
</g>
<path style="fill:#E4E7ED;" d="M294.85,367.394c-0.413,0.413-0.894,0.825-1.306,1.169c-39.676,35.137-107.612,23.241-151.757-26.611
	s-47.721-118.752-8.045-153.889c0.413-0.413,0.894-0.756,1.375-1.169c-9.695,9.764,17.534,57.279,61.335,106.649
	c43.732,49.371,87.534,82.17,98.467,73.781L294.85,367.394z"/>
<path style="fill:#FFFFFF;" d="M154.164,354.467c-4.332-3.851-8.458-8.045-12.446-12.515
	c-44.145-49.852-47.721-118.752-8.045-153.889c0.413-0.413,0.894-0.756,1.375-1.169c-9.695,9.764,17.534,57.279,61.335,106.649
	c31.149,35.137,62.298,61.886,81.62,71.306c-35.137,18.703-83.27,14.096-123.771-10.521L154.164,354.467z"/>
<path style="fill:#83CF8F;" d="M234.065,260.194c44.145,49.852,71.443,97.71,61.06,106.925s-54.666-23.723-98.742-73.575
	c-44.145-49.852-71.443-97.71-61.06-106.925C145.706,177.405,189.92,210.342,234.065,260.194z"/>
<path style="fill:#E4E7ED;" d="M278.141,229.527l-37.063,108.919c-3.163-2.75-6.395-5.638-9.627-8.733l35.687-93.585l-66.561,62.092
	c-1.375-1.513-2.75-3.094-4.126-4.607c-1.375-1.582-2.75-3.094-4.126-4.676l67.937-59.135l-95.441,24.617
	c-2.613-3.644-5.157-7.151-7.495-10.589l112.563-23.654l8.251,9.283V229.527z"/>
<g>
	<path style="fill:#FFFFFF;" d="M288.731,211.786c6.807,7.701,6.12,19.528-1.582,26.336c-7.701,6.807-19.528,6.12-26.336-1.582
		c-6.807-7.701-6.12-19.528,1.582-26.336C270.096,203.397,281.923,204.085,288.731,211.786z"/>
	<path style="fill:#FFFFFF;" d="M255.656,219.625l21.591,24.41c0.963,1.1,0.825,2.682-0.206,3.644l-2.338,2.063
		c-1.1,0.963-2.682,0.825-3.644-0.206l-21.591-24.41c-0.963-1.1-0.825-2.682,0.206-3.644l2.338-2.063
		C253.112,218.456,254.694,218.594,255.656,219.625z"/>
	<path style="fill:#FFFFFF;" d="M368.563,140.068c21.11,23.792,30.53,53.978,28.742,83.408c-0.55,9.489-2.338,18.909-5.226,27.986
		l-10.245-3.301c2.613-8.251,4.194-16.778,4.676-25.373c1.65-26.68-6.945-54.047-26.061-75.638
		c-19.116-21.591-45.245-33.418-71.925-35c-8.595-0.55-17.259,0-25.717,1.582l-1.994-10.589c9.352-1.788,18.909-2.338,28.399-1.788
		c29.43,1.788,58.172,14.784,79.282,38.644L368.563,140.068z M395.38,116.345c27.642,31.218,40.019,70.687,37.681,109.331
		c-0.756,12.446-3.026,24.823-6.807,36.719l-10.245-3.301c3.507-11.071,5.638-22.554,6.326-34.106
		c2.2-35.825-9.352-72.544-35-101.561c-25.717-29.017-60.717-44.833-96.541-47.033c-11.552-0.688-23.173,0-34.656,2.2l-1.994-10.589
		c12.308-2.338,24.823-3.094,37.269-2.338c38.575,2.338,76.326,19.391,103.968,50.609V116.345z M310.803,191.295
		c6.945,7.839,10.039,17.809,9.489,27.505l0,0l0,0c-0.206,3.094-0.756,6.12-1.65,9.077l-10.177-3.301
		c0.688-2.132,1.031-4.263,1.169-6.464l0,0c0.413-6.945-1.788-14.096-6.807-19.735c-5.02-5.638-11.827-8.733-18.772-9.145l0,0
		c-2.2-0.138-4.332,0-6.532,0.413h-0.069l-1.994-10.521l0,0c3.026-0.55,6.12-0.756,9.214-0.55l0,0l0,0
		c9.764,0.619,19.253,4.882,26.198,12.721H310.803z M327.719,176.305c11.071,12.515,16.09,28.399,15.128,43.87l0,0
		c-0.275,4.951-1.238,9.833-2.682,14.646l-10.245-3.301c1.238-3.919,1.994-7.976,2.2-12.033l0,0
		c0.756-12.721-3.301-25.786-12.446-36.1c-9.145-10.314-21.591-15.953-34.381-16.709c-4.057-0.275-8.183,0-12.171,0.756
		l-1.994-10.589c4.882-0.894,9.902-1.238,14.853-0.894C301.452,156.914,316.648,163.722,327.719,176.305z M346.903,159.321
		c15.815,17.809,22.829,40.363,21.522,62.436c-0.413,7.082-1.719,14.096-3.851,20.904l-10.245-3.301
		c1.857-5.913,3.026-12.102,3.369-18.291c1.169-19.322-5.02-39.057-18.841-54.666s-32.662-24.135-51.984-25.304
		c-6.189-0.344-12.446,0-18.566,1.169l-1.994-10.589c7.014-1.306,14.165-1.719,21.179-1.306
		c22.004,1.306,43.595,11.071,59.341,28.88L346.903,159.321z"/>
	<path style="fill:#FFFFFF;" d="M129.96,350.891c1.65-0.206,3.163,0.963,3.369,2.613c0.206,1.65-0.963,3.163-2.682,3.369
		c-1.65,0.206-3.163-0.963-3.369-2.613c-0.206-1.65,0.963-3.163,2.613-3.369H129.96z"/>
</g>
<path style="fill:#83CF8F;" d="M62.848,501.273h150.176c2.957,0,5.363,2.407,5.363,5.363V512H57.485v-5.363
	C57.485,503.68,59.891,501.273,62.848,501.273z"/>
<g>
</g>
<g>
</g>
<g>
</g>
<g>
</g>
<g>
</g>
<g>
</g>
<g>
</g>
<g>
</g>
<g>
</g>
<g>
</g>
<g>
</g>
<g>
</g>
<g>
</g>
<g>
</g>
<g>
</g>
</svg>
