<?xml version="1.0" encoding="iso-8859-1"?>
<!-- Generator: Adobe Illustrator 19.0.0, SVG Export Plug-In . SVG Version: 6.00 Build 0)  -->
<svg version="1.1" id="Layer_1" xmlns="http://www.w3.org/2000/svg" xmlns:xlink="http://www.w3.org/1999/xlink" x="0px" y="0px"
	 viewBox="0 0 512 512" style="enable-background:new 0 0 512 512;" xml:space="preserve">
<circle style="fill:#FC6F58;" cx="256" cy="256" r="256"/>
<path style="fill:#F1543F;" d="M510.317,285.331L309.429,84.299l-67.275,205.952L175.04,421.492l90.321,90.321
	C392.571,507.237,496.111,409.857,510.317,285.331z"/>
<path style="fill:#324A5E;" d="M301.397,137.912h-90.793c-6.347,0-11.492-5.146-11.492-11.492V92.517
	c0-6.347,5.146-11.493,11.492-11.493h90.793c6.347,0,11.493,5.146,11.493,11.493v33.904
	C312.889,132.767,307.743,137.912,301.397,137.912z"/>
<path style="fill:#2B3B4E;" d="M301.397,81.024h-45.971v56.889h45.971c6.347,0,11.493-5.146,11.493-11.493V92.517
	C312.889,86.169,307.743,81.024,301.397,81.024z"/>
<path style="fill:#E6F3FF;" d="M325.101,426.667h-138.2c-8.966,0-16.232-7.268-16.232-16.234V130.012
	c0-8.966,7.268-16.232,16.232-16.232h138.2c8.966,0,16.234,7.268,16.234,16.232v280.423
	C341.333,419.399,334.065,426.667,325.101,426.667z"/>
<path style="fill:#CFDBE6;" d="M325.101,113.778h-69.675v312.889h69.675c8.966,0,16.234-7.268,16.234-16.234V130.012
	C341.333,121.046,334.065,113.778,325.101,113.778z"/>
<g>
	<path style="fill:#90DFAA;" d="M317.99,410.29H194.012c-5.037,0-9.121-4.084-9.121-9.123v-38.645c0-5.037,4.084-9.123,9.121-9.123
		H317.99c5.037,0,9.123,4.084,9.123,9.123v38.645C327.111,406.206,323.027,410.29,317.99,410.29z"/>
	<path style="fill:#90DFAA;" d="M317.99,333.145H194.012c-5.037,0-9.121-4.084-9.121-9.123v-38.645c0-5.037,4.084-9.123,9.121-9.123
		H317.99c5.037,0,9.123,4.084,9.123,9.123v38.645C327.111,329.061,323.027,333.145,317.99,333.145z"/>
	<path style="fill:#90DFAA;" d="M317.99,256H194.012c-5.037,0-9.121-4.084-9.121-9.123v-38.645c0-5.037,4.084-9.121,9.121-9.121
		H317.99c5.037,0,9.123,4.084,9.123,9.121v38.645C327.111,251.916,323.027,256,317.99,256z"/>
</g>
<g>
	<path style="fill:#6FC186;" d="M317.99,353.401h-62.564v56.889h62.564c5.037,0,9.123-4.084,9.123-9.123v-38.645
		C327.111,357.485,323.027,353.401,317.99,353.401z"/>
	<path style="fill:#6FC186;" d="M317.99,276.256h-62.564v56.889h62.564c5.037,0,9.123-4.084,9.123-9.123v-38.645
		C327.111,280.34,323.027,276.256,317.99,276.256z"/>
	<path style="fill:#6FC186;" d="M317.99,199.111h-62.564V256h62.564c5.037,0,9.123-4.084,9.123-9.123v-38.645
		C327.111,203.195,323.027,199.111,317.99,199.111z"/>
</g>
<path style="fill:#324A5E;" d="M248.806,317.202c-1.96,0-3.949-0.448-5.818-1.393c-6.373-3.219-8.932-10.995-5.711-17.368
	l19.258-38.131h-22.083c-4.489,0-8.657-2.331-11.012-6.154c-2.353-3.824-2.553-8.595-0.529-12.603l28.732-56.889
	c3.219-6.373,10.995-8.933,17.368-5.711c6.373,3.219,8.932,10.995,5.711,17.368l-19.256,38.131h22.083
	c4.489,0,8.657,2.331,11.012,6.154c2.353,3.824,2.553,8.595,0.529,12.603l-28.732,56.889
	C258.082,314.602,253.53,317.2,248.806,317.202z"/>
<path style="fill:#2B3B4E;" d="M288.561,240.606c-2.353-3.825-6.522-6.154-11.012-6.154h-22.083l19.258-38.131
	c3.219-6.373,0.662-14.15-5.711-17.368c-4.537-2.293-9.776-1.645-13.586,1.212v80.146h1.108l-1.108,2.193v52.874
	c2.045-1.214,3.781-3,4.93-5.279l28.732-56.889C291.114,249.203,290.914,244.429,288.561,240.606z"/>
<g>
</g>
<g>
</g>
<g>
</g>
<g>
</g>
<g>
</g>
<g>
</g>
<g>
</g>
<g>
</g>
<g>
</g>
<g>
</g>
<g>
</g>
<g>
</g>
<g>
</g>
<g>
</g>
<g>
</g>
</svg>
