<?xml version="1.0" encoding="iso-8859-1"?>
<!-- Generator: Adobe Illustrator 19.0.0, SVG Export Plug-In . SVG Version: 6.00 Build 0)  -->
<svg version="1.1" id="Layer_1" xmlns="http://www.w3.org/2000/svg" xmlns:xlink="http://www.w3.org/1999/xlink" x="0px" y="0px"
	 viewBox="0 0 512.057 512.057" style="enable-background:new 0 0 512.057 512.057;" xml:space="preserve">
<circle style="fill:#83CF8F;" cx="256.028" cy="256.028" r="256.028"/>
<path style="fill:#596366;" d="M267.656,298.284l1.531,7.317l49.289,198.742c-14.577,3.687-29.664,6.069-45.148,7.09
	c2.552-1.078,5.105-2.212,7.657-3.29c3.687-1.588,7.26-3.176,10.833-4.764l-1.758-7.033c-3.573-1.475-7.147-3.006-10.606-4.481
	c-7.941-3.403-15.768-6.863-23.425-10.38c-7.657,3.573-15.541,7.09-23.708,10.55c-3.403,1.475-6.92,2.949-10.55,4.481l-1.758,7.09
	c3.573,1.588,7.147,3.176,10.777,4.708c2.382,1.021,4.764,2.042,7.147,3.063c-15.257-1.078-30.118-3.46-44.524-7.033l49.289-198.742
	l1.531-7.317l4.821-92.905h13.726l4.821,92.905H267.656z M288.245,488.802l-5.161-20.872l-3.687,1.928
	c-5.218,2.723-10.55,5.445-15.995,8.111c5.955,2.723,12.195,5.445,18.547,8.168L288.245,488.802z M281.552,461.69l-2.949-11.968
	l-3.63-1.815c-6.693-3.403-13.102-6.863-19.114-10.266c-6.126,3.46-12.421,6.863-18.831,10.209l-3.517,1.815l-3.006,12.081
	l4.935,2.609c6.636,3.46,13.499,6.92,20.646,10.266c7.147-3.403,13.896-6.806,20.475-10.209c1.702-0.908,3.346-1.758,5.048-2.666
	L281.552,461.69z M276.617,441.782l-3.63-14.577c-3.517,2.269-7.147,4.594-10.947,6.806c4.764,2.666,9.585,5.218,14.52,7.77H276.617
	z M271.399,420.796l-4.878-19.681c-3.63-2.382-7.09-4.821-10.38-7.203c-3.403,2.496-6.976,4.991-10.663,7.43l-4.878,19.681
	c4.821,3.12,9.869,6.296,15.257,9.472C261.246,427.319,266.465,424.086,271.399,420.796z M264.253,392.097l-0.907-3.743
	l-2.042,1.645l3.006,2.099H264.253z M261.644,381.66l-5.672-22.914l-5.672,22.801c1.872,1.531,3.743,3.063,5.785,4.594
	C258.014,384.666,259.829,383.192,261.644,381.66z M248.655,388.183l-1.021,4.14c1.078-0.794,2.212-1.531,3.29-2.325
	L248.655,388.183z M238.956,427.376l-3.517,14.236c4.878-2.552,9.642-5.048,14.18-7.6
	C245.989,431.856,242.473,429.644,238.956,427.376z M228.917,467.873l-5.218,21.043l6.239-2.666
	c6.409-2.723,12.705-5.502,18.831-8.338c-5.558-2.666-11.003-5.445-16.222-8.168l-3.63-1.928V467.873z"/>
<path style="fill:#FFE356;" d="M256.028,163.804c12.138,0,21.95,9.812,21.95,21.95c0,12.138-9.812,21.95-21.95,21.95
	c-12.138,0-21.95-9.812-21.95-21.95C234.078,173.616,243.891,163.804,256.028,163.804z"/>
<g>
	<path style="fill:#FEFEFE;" d="M218.651,198.062c1.645,1.134,2.042,3.346,0.964,4.991c-1.134,1.645-3.346,2.042-4.991,0.964
		c-3.8-2.609-6.976-6.126-9.132-10.266c-2.099-3.97-3.29-8.508-3.29-13.272s1.191-9.302,3.29-13.272
		c2.155-4.14,5.332-7.657,9.132-10.266c1.645-1.134,3.857-0.681,4.991,0.964c1.134,1.645,0.681,3.857-0.964,4.991
		c-2.836,1.928-5.218,4.594-6.863,7.657c-1.588,2.949-2.439,6.352-2.439,9.926c0,3.573,0.908,6.976,2.439,9.926
		C213.433,193.468,215.758,196.133,218.651,198.062z M173.503,264.253c1.645,1.134,2.042,3.346,0.964,4.991
		c-1.134,1.645-3.346,2.042-4.991,0.964c-14.577-9.982-26.601-23.368-34.882-39.079c-7.997-15.144-12.535-32.386-12.535-50.65
		s4.537-35.506,12.535-50.65c8.281-15.711,20.305-29.097,34.882-39.079c1.645-1.134,3.857-0.681,4.991,0.964
		c1.134,1.645,0.681,3.857-0.964,4.991c-13.613,9.302-24.843,21.837-32.613,36.47c-7.43,14.123-11.684,30.231-11.684,47.303
		c0,17.129,4.197,33.18,11.684,47.303C148.66,242.416,159.89,254.951,173.503,264.253z M188.476,242.246
		c1.645,1.134,2.042,3.346,0.964,4.991c-1.134,1.645-3.346,2.042-4.991,0.964c-11.003-7.487-20.078-17.64-26.318-29.494
		c-6.012-11.4-9.472-24.446-9.472-38.228s3.403-26.828,9.472-38.228c6.239-11.854,15.314-21.95,26.318-29.494
		c1.645-1.134,3.857-0.681,4.991,0.964s0.681,3.857-0.964,4.991c-10.039,6.863-18.32,16.108-24.049,26.885
		c-5.502,10.38-8.621,22.29-8.621,34.882c0,12.592,3.12,24.503,8.621,34.882c5.729,10.833,14.01,20.078,24.049,26.941V242.246z
		 M201.522,223.132c1.645,1.134,2.042,3.346,0.964,4.991c-1.134,1.645-3.346,2.042-4.991,0.964
		c-7.884-5.388-14.407-12.648-18.887-21.156c-4.311-8.224-6.806-17.526-6.806-27.452c0-9.926,2.439-19.228,6.806-27.452
		c4.481-8.508,11.003-15.768,18.887-21.156c1.645-1.134,3.857-0.681,4.991,0.964c1.134,1.645,0.681,3.857-0.964,4.991
		c-6.92,4.764-12.648,11.117-16.619,18.604c-3.8,7.203-5.955,15.371-5.955,24.105c0,8.735,2.155,16.902,5.955,24.105
		c3.97,7.487,9.642,13.839,16.619,18.604V223.132z"/>
	<path style="fill:#FEFEFE;" d="M293.349,198.062c-1.645,1.134-2.042,3.346-0.964,4.991c1.134,1.645,3.346,2.042,4.991,0.964
		c3.8-2.609,6.976-6.126,9.132-10.266c2.099-3.97,3.29-8.508,3.29-13.272s-1.191-9.302-3.29-13.272
		c-2.155-4.14-5.332-7.657-9.132-10.266c-1.645-1.134-3.857-0.681-4.991,0.964s-0.681,3.857,0.964,4.991
		c2.836,1.928,5.218,4.594,6.863,7.657c1.588,2.949,2.439,6.352,2.439,9.926c0,3.573-0.908,6.976-2.439,9.926
		C298.567,193.468,296.242,196.133,293.349,198.062z M338.497,264.253c-1.645,1.134-2.042,3.346-0.964,4.991
		c1.134,1.645,3.346,2.042,4.991,0.964c14.577-9.982,26.601-23.368,34.882-39.079c7.997-15.144,12.535-32.386,12.535-50.65
		s-4.538-35.506-12.535-50.65c-8.281-15.711-20.305-29.097-34.882-39.079c-1.645-1.134-3.857-0.681-4.991,0.964
		c-1.134,1.645-0.681,3.857,0.964,4.991c13.612,9.302,24.843,21.837,32.613,36.47c7.487,14.123,11.684,30.231,11.684,47.303
		c0,17.129-4.197,33.18-11.684,47.303C363.397,242.416,352.11,254.951,338.497,264.253z M323.524,242.246
		c-1.645,1.134-2.042,3.346-0.964,4.991c1.134,1.645,3.346,2.042,4.991,0.964c11.003-7.487,20.078-17.64,26.317-29.494
		c6.012-11.4,9.472-24.446,9.472-38.228s-3.403-26.828-9.472-38.228c-6.239-11.854-15.314-21.95-26.317-29.494
		c-1.645-1.134-3.857-0.681-4.991,0.964c-1.134,1.645-0.681,3.857,0.964,4.991c10.039,6.863,18.32,16.108,24.049,26.885
		c5.502,10.38,8.621,22.29,8.621,34.882c0,12.592-3.12,24.503-8.621,34.882c-5.729,10.833-14.01,20.078-24.049,26.941V242.246z
		 M310.478,223.132c-1.645,1.134-2.042,3.346-0.964,4.991c1.134,1.645,3.346,2.042,4.991,0.964
		c7.884-5.388,14.407-12.648,18.887-21.156c4.311-8.224,6.806-17.526,6.806-27.452c0-9.926-2.439-19.228-6.806-27.452
		c-4.481-8.508-11.003-15.768-18.887-21.156c-1.645-1.134-3.857-0.681-4.991,0.964c-1.134,1.645-0.681,3.857,0.964,4.991
		c6.92,4.764,12.648,11.117,16.619,18.604c3.8,7.203,5.955,15.371,5.955,24.105c0,8.735-2.155,16.902-5.955,24.105
		c-3.97,7.487-9.642,13.839-16.619,18.604V223.132z"/>
</g>
<g>
</g>
<g>
</g>
<g>
</g>
<g>
</g>
<g>
</g>
<g>
</g>
<g>
</g>
<g>
</g>
<g>
</g>
<g>
</g>
<g>
</g>
<g>
</g>
<g>
</g>
<g>
</g>
<g>
</g>
</svg>
