<?xml version="1.0" encoding="iso-8859-1"?>
<!-- Generator: Adobe Illustrator 19.0.0, SVG Export Plug-In . SVG Version: 6.00 Build 0)  -->
<svg version="1.1" id="Layer_1" xmlns="http://www.w3.org/2000/svg" xmlns:xlink="http://www.w3.org/1999/xlink" x="0px" y="0px"
	 viewBox="0 0 512 512" style="enable-background:new 0 0 512 512;" xml:space="preserve">
<circle style="fill:#32BEA6;" cx="256" cy="256" r="256"/>
<path d="M367.808,269.392l-98.416,98.416c-12.904,12.904-33.824,12.904-46.728,0l-87.232-87.232l145.144-145.144l87.232,87.232
	C380.712,235.568,380.712,256.488,367.808,269.392z"/>
<g>
	
		<rect x="129.503" y="178.241" transform="matrix(-0.7071 0.7071 -0.7071 -0.7071 399.617 268.466)" style="fill:#FFFFFF;" width="29.408" height="77.511"/>
	
		<rect x="202.282" y="105.448" transform="matrix(-0.7071 0.7071 -0.7071 -0.7071 472.3851 92.7389)" style="fill:#FFFFFF;" width="29.408" height="77.511"/>
</g>
<rect x="348.642" y="330.543" transform="matrix(-0.7071 0.7071 -0.7071 -0.7071 870.6535 360.6096)" width="24" height="60.159"/>
<g style="opacity:0.25;">
	
		<rect x="153.259" y="235.524" transform="matrix(-0.7071 0.7071 -0.7071 -0.7071 456.9344 292.1398)" width="29.408" height="10.36"/>
</g>
<g style="opacity:0.25;">
	
		<rect x="226.014" y="162.79" transform="matrix(-0.7071 0.7071 -0.7071 -0.7071 529.7039 116.5299)" width="29.408" height="10.36"/>
</g>
<path style="fill:#FFFFFF;" d="M284.936,311.04l-27.912-49.264l-13.304,13.312l-15.992-28.744l26.376-26.376l17.784,32.352
	l10.04-10.04L284.936,311.04z"/>
<rect x="296.621" y="314.301" transform="matrix(-0.7071 0.7071 -0.7071 -0.7071 794.3149 328.9945)" style="fill:#E04F5F;" width="64.799" height="29.408"/>
<g>
</g>
<g>
</g>
<g>
</g>
<g>
</g>
<g>
</g>
<g>
</g>
<g>
</g>
<g>
</g>
<g>
</g>
<g>
</g>
<g>
</g>
<g>
</g>
<g>
</g>
<g>
</g>
<g>
</g>
</svg>
